<?xml version="1.0" encoding="UTF-8" standalone="no"?>
<!-- Created with Inkscape (http://www.inkscape.org/) -->

<svg
   xmlns:dc="http://purl.org/dc/elements/1.1/"
   xmlns:cc="http://creativecommons.org/ns#"
   xmlns:rdf="http://www.w3.org/1999/02/22-rdf-syntax-ns#"
   xmlns:svg="http://www.w3.org/2000/svg"
   xmlns="http://www.w3.org/2000/svg"
   xmlns:sodipodi="http://sodipodi.sourceforge.net/DTD/sodipodi-0.dtd"
   xmlns:inkscape="http://www.inkscape.org/namespaces/inkscape"
   width="185"
   height="70"
   viewBox="0 0 184.99999 69.999998"
   id="svg2"
   version="1.1"
   inkscape:version="0.91 r13725"
   sodipodi:docname="logo-unerg.svg">
  <defs
     id="defs4" />
  <sodipodi:namedview
     id="base"
     pagecolor="#ffffff"
     bordercolor="#666666"
     borderopacity="1.0"
     inkscape:pageopacity="0.0"
     inkscape:pageshadow="2"
     inkscape:zoom="3.959798"
     inkscape:cx="40.029563"
     inkscape:cy="32.887869"
     inkscape:document-units="px"
     inkscape:current-layer="layer1"
     showgrid="false"
     borderlayer="true"
     inkscape:showpageshadow="false"
     units="px"
     inkscape:window-width="1360"
     inkscape:window-height="705"
     inkscape:window-x="-8"
     inkscape:window-y="-8"
     inkscape:window-maximized="1" />
  <metadata
     id="metadata7">
    <rdf:RDF>
      <cc:Work
         rdf:about="">
        <dc:format>image/svg+xml</dc:format>
        <dc:type
           rdf:resource="http://purl.org/dc/dcmitype/StillImage" />
        <dc:title />
      </cc:Work>
    </rdf:RDF>
  </metadata>
  <g
     inkscape:label="Capa 1"
     inkscape:groupmode="layer"
     id="layer1"
     transform="translate(0,-982.36222)">
    <g
       id="g3599"
       transform="matrix(0.75173559,0,0,0.75173559,7.090209,262.62894)"
       style="fill:#d7eef4;fill-opacity:1">
      <g
         transform="matrix(0.32369458,0,0,0.29941317,91.548659,864.22371)"
         id="g3471"
         style="fill:#d7eef4;fill-opacity:1">
        <path
           inkscape:connector-curvature="0"
           style="fill:#d7eef4;fill-opacity:1"
           d="m 61.798956,425.09885 c -16.46602,-5.82601 -23.6916,-18.52838 -23.71153,-41.68417 -0.0113,-13.2308 -2.62973,-17.10398 -12.06243,-17.84321 -5.78568,-0.45342 -7.7545,-2.20519 -5.85262,-5.20743 1.3788,-2.17652 13.02525,-1.03708 16.61027,1.62508 5.64764,4.1938 7.23599,8.60536 7.99206,22.19755 0.79257,14.24844 1.83407,17.83496 7.26995,25.03472 6.23703,8.26088 13.83946,11.02027 30.36216,11.02027 7.731683,0 9.023623,-0.27805 15.284843,-3.28957 7.257601,-3.49076 11.366001,-7.58712 15.505871,-15.46043 2.04637,-3.89181 2.24264,-5.5083 2.53273,-20.85937 l 0.31444,-16.64063 -8.27905,-0.0289 c -11.617321,-0.0406 -21.896554,-1.51987 -24.685294,-3.55239 -5.61988,-4.09594 -7.58934,-15.23105 -3.5926,-20.31209 3.44244,-4.37635 6.76253,-5.11114 26.138694,-5.78494 18.3665,-0.63869 19.61269,-0.45064 19.61269,2.95962 0,3.41301 -1.52999,3.74357 -19.52677,4.21875 -15.748741,0.41582 -17.975874,0.6704 -19.723944,2.25467 -2.88851,2.61784 -2.6682,8.0126 0.44683,10.94128 2.331013,2.19157 3.026193,2.28955 19.453124,2.74155 l 17.03573,0.46875 0.53405,4.65329 c 0.29373,2.55931 0.29373,11.86335 0,20.67564 -0.53196,15.95976 -0.54672,16.0473 -3.77521,22.40625 -3.89725,7.67619 -10.44405,14.33939 -17.67772,17.99206 -5.121031,2.58589 -5.922251,2.70196 -20.331124,2.9453 -12.6177,0.21308 -15.77428,-0.0206 -19.87515,-1.47161 z"
           id="path3431" />
        <path
           inkscape:connector-curvature="0"
           style="fill:#d7eef4;fill-opacity:1"
           d="m 74.965196,413.66738 c -7.4773,-1.53121 -13.38774,-4.77428 -17.73742,-9.73255 -5.13286,-5.85104 -6.64207,-10.56114 -7.97559,-24.89088 -1.10593,-11.88414 -3.34574,-18.60976 -7.20976,-21.6492 -1.96373,-1.54466 -3.81673,-1.84058 -11.52533,-1.84058 -8.46866,0 -9.2335,-0.15159 -9.80197,-1.94267 -0.33911,-1.06846 -0.35951,-2.9669 -0.0453,-4.21875 0.56623,-2.25615 0.67267,-2.27608 12.15493,-2.27608 6.37103,0 12.93064,-0.26939 14.57689,-0.59864 6.03813,-1.20763 8.08112,-9.15042 3.39121,-13.18451 -2.50001,-2.15042 -3.08126,-2.22582 -15.11836,-1.961 -10.67119,0.23476 -12.7494,0.045 -14.08407,-1.28588 -1.06806,-1.06506 -1.37239,-2.33142 -0.95753,-3.98438 l 0.60815,-2.4231 13.93016,0 c 15.30143,0 19.06431,0.87859 22.50683,5.25503 5.16573,6.56716 4.26228,14.2567 -2.46547,20.98445 l -4.21441,4.21441 1.5164,4.22619 c 0.83403,2.32439 1.92576,9.49961 2.42607,15.94492 1.26165,16.25347 2.78554,20.73728 8.86076,26.07139 4.16199,3.65428 9.58647,5.29673 17.40395,5.26964 7.571783,-0.0262 12.497763,-2.39717 17.393383,-8.37162 3.055081,-3.72833 3.645821,-5.28821 4.712711,-12.44416 0.98723,-6.62174 0.99239,-8.41314 0.027,-9.39656 -0.78509,-0.79979 -5.626381,-1.46088 -14.165161,-1.9343 l -12.972413,-0.71922 -3.10706,-3.59434 c -10.17656,-11.7726 -9.43199,-33.22143 1.44119,-41.51467 l 4.00361,-3.05366 23.424024,0 23.42402,0 -0.29378,3.04688 c -0.27295,2.83088 -0.59285,3.09179 -4.51252,3.68051 -2.32032,0.3485 -11.46864,0.6649 -20.3296,0.70312 -8.860971,0.0382 -17.175774,0.47438 -18.477344,0.96923 -1.30156,0.49486 -3.54387,2.68238 -4.9829,4.86116 -2.24117,3.39327 -2.60039,4.84407 -2.50473,10.11588 0.13403,7.38569 2.70074,14.6355 6.07056,17.14656 2.03898,1.51938 4.69157,1.91412 16.406253,2.44142 l 13.974011,0.62899 -0.22682,11.56647 c -0.26687,13.60879 -1.49618,17.25195 -8.262,24.48516 -7.291921,7.79566 -17.670814,11.37365 -27.282594,9.40534 z"
           id="path3429" />
        <path
           inkscape:connector-curvature="0"
           style="fill:#d7eef4;fill-opacity:1"
           d="m 93.601459,352.21976 c -2.67771,-1.87554 -2.66585,-4.72113 0.0258,-6.18194 2.5429,-1.38009 25.374861,-1.20505 28.028031,0.21488 2.28818,1.2246 2.24133,5.2159 -0.0758,6.45598 -0.99738,0.53377 -7.23164,0.97049 -13.85393,0.97049 -9.380321,0 -12.500891,-0.32245 -14.124131,-1.45941 z"
           id="path3427" />
        <path
           inkscape:connector-curvature="0"
           style="fill:#d7eef4;fill-opacity:1"
           d="m 20.691586,341.08578 c -1.16255,-1.77426 -1.26414,-2.71131 -0.45738,-4.21875 0.96908,-1.81074 1.86082,-1.93786 13.59342,-1.93786 13.27374,0 16.12014,0.858 14.86314,4.48025 -1.18908,3.42653 -3.19898,3.95725 -14.98674,3.95725 -11.16664,0 -11.56354,-0.0696 -13.01244,-2.28089 z"
           id="path3359" />
      </g>
      <g
         transform="matrix(1,0,0,0.90643366,0,91.656664)"
         id="g3577"
         style="fill:#d7eef4;fill-opacity:1">
        <path
           inkscape:connector-curvature="0"
           style="fill:#d7eef4;fill-opacity:1"
           d="m 107.61467,1050.7406 c -1.50214,-0.7265 -2.85006,-1.368 -2.99537,-1.4255 -0.25984,-0.1027 -0.14111,-1.9035 1.03565,-15.7084 0.99279,-11.6467 1.77681,-21.1425 2.26751,-27.4635 0.43067,-5.5477 0.78143,-8.16999 1.14091,-8.52947 0.33116,-0.33116 1.73662,0.53197 1.88852,1.15979 0.31407,1.29808 0.0193,53.13778 -0.30258,53.21518 -0.16691,0.04 -1.53249,-0.5215 -3.03464,-1.2481 z"
           id="path3523" />
        <path
           inkscape:connector-curvature="0"
           style="fill:#d7eef4;fill-opacity:1"
           d="m 113.43043,1035.9586 c -0.28908,-23.2344 -0.25541,-36.57426 0.0929,-36.78951 0.16201,-0.10013 0.69496,0.025 1.18435,0.27809 1.08205,0.55952 0.86238,-0.98229 2.61869,18.37942 0.74943,8.2618 1.71286,18.4858 2.14096,22.72 0.42809,4.2342 0.70982,7.8772 0.62606,8.0954 -0.15769,0.411 -5.54894,3.4627 -6.13217,3.4712 -0.23073,0 -0.39005,-4.8456 -0.53076,-16.1546 z"
           id="path3521" />
        <path
           inkscape:connector-curvature="0"
           style="fill:#d7eef4;fill-opacity:1"
           d="m 97.145178,1045.4711 c -2.086315,-1.1264 -3.833835,-2.2579 -3.883386,-2.5143 -0.04955,-0.2565 1.019663,-5.1622 2.376025,-10.9016 2.961381,-12.531 7.357673,-31.2026 8.262453,-35.09173 0.35917,-1.54387 0.74933,-2.80704 0.86703,-2.80704 0.44589,0 1.78526,1.89567 1.78532,2.52686 3e-5,0.36273 -0.34025,3.86861 -0.75619,7.79091 -0.41594,3.9223 -0.96861,9.2481 -1.22815,11.8351 -1.85563,18.496 -3.20607,30.8014 -3.40087,30.9892 -0.12591,0.1214 -1.93592,-0.7009 -4.022232,-1.8274 z"
           id="path3519" />
        <path
           inkscape:connector-curvature="0"
           style="fill:#d7eef4;fill-opacity:1"
           d="m 122.81078,1046.5798 c -0.13092,-0.4525 -2.37849,-22.5687 -3.22211,-31.7058 -0.32715,-3.5433 -0.72852,-7.3669 -0.89192,-8.497 -0.50158,-3.4687 -0.40134,-5.6703 0.28651,-6.2928 0.32759,-0.29647 0.77141,-0.47111 0.98625,-0.38808 0.43409,0.16774 9.7857,42.82508 9.5999,43.78988 -0.0691,0.359 -1.11911,1.1043 -2.83871,2.0149 -2.80534,1.4856 -3.7287,1.7397 -3.91992,1.0789 z"
           id="path3517" />
        <path
           inkscape:connector-curvature="0"
           style="fill:#d7eef4;fill-opacity:1"
           d="m 132.84693,1041.5692 c -0.24793,-0.4011 -9.90734,-41.2702 -9.90734,-41.91801 0,-0.75103 0.96459,-1.3175 2.02482,-1.18911 0.6948,0.0841 0.92819,0.47958 2.11553,3.58442 0.734,1.9194 2.27778,5.8796 3.4306,8.8004 5.88026,14.8985 10.33341,26.4417 10.33341,26.7858 0,0.212 -1.70838,1.2364 -3.79639,2.2765 -4.10277,2.0436 -3.99086,1.9994 -4.20063,1.66 z"
           id="path3515" />
        <path
           inkscape:connector-curvature="0"
           style="fill:#d7eef4;fill-opacity:1"
           d="m 86.603695,1039.5976 c -2.3857,-1.3251 -3.411252,-2.0595 -3.413964,-2.4447 -0.0023,-0.3029 0.552358,-2.0099 1.232214,-3.7933 0.679853,-1.7835 1.757309,-4.6766 2.39435,-6.4291 0.637034,-1.7525 2.458648,-6.6686 4.048027,-10.9247 1.589379,-4.2561 4.41722,-11.9033 6.284096,-16.99395 1.866873,-5.0906 3.594122,-9.46048 3.838332,-9.71084 0.39406,-0.40398 0.49271,-0.38951 0.8768,0.12859 1.04991,1.41621 0.9217,2.28227 -2.288879,15.4612 -6.563769,26.9432 -8.964456,36.4095 -9.257425,36.5035 -0.166907,0.053 -1.838006,-0.755 -3.713551,-1.7967 z"
           id="path3513" />
        <path
           inkscape:connector-curvature="0"
           style="fill:#d7eef4;fill-opacity:1"
           d="m 135.40981,1016.7934 c -6.52599,-16.0024 -7.91303,-19.65201 -7.65326,-20.1374 0.36624,-0.68433 1.64714,-1.58918 2.24964,-1.58918 0.48589,0 0.38444,-0.1761 11.88298,20.62718 4.93299,8.9248 8.96908,16.3895 8.96908,16.5881 0,0.395 -6.36684,4.0558 -7.05373,4.0558 -0.27636,0 -3.20169,-6.8108 -8.39471,-19.5445 z"
           id="path3511" />
        <path
           inkscape:connector-curvature="0"
           style="fill:#d7eef4;fill-opacity:1"
           d="m 79.06278,1035.231 c -2.987649,-1.559 -6.194695,-3.5092 -6.194695,-3.7669 0,-0.1453 0.736424,-1.6004 1.636509,-3.2334 0.900078,-1.6331 4.330862,-7.9536 7.623965,-14.0457 3.293107,-6.092 7.18559,-13.2613 8.649964,-15.93181 1.464378,-2.67048 3.917961,-7.17691 5.452409,-10.0143 1.534445,-2.83739 2.914115,-5.28861 3.065928,-5.44717 0.166813,-0.17423 0.276028,0.61588 0.276028,1.99689 0,2.25785 -0.09815,2.5425 -8.2086,23.80669 -10.832825,28.4018 -10.33518,27.1199 -10.588694,27.2766 -0.121988,0.075 -0.892756,-0.213 -1.712814,-0.6409 z"
           id="path3509" />
        <path
           inkscape:connector-curvature="0"
           style="fill:#d7eef4;fill-opacity:1"
           d="m 153.05169,1030.1989 c -0.32716,-0.5458 -2.81664,-5.0209 -5.53218,-9.9446 -2.71554,-4.9237 -7.02289,-12.7075 -9.5719,-17.2974 -6.14757,-11.06968 -5.82021,-10.33023 -5.20097,-11.74833 0.27593,-0.6319 0.48289,-1.59464 0.4599,-2.13943 -0.023,-0.54479 0.0359,-1.06821 0.13083,-1.16315 0.0949,-0.0949 0.682,0.62392 1.30459,1.59746 0.62259,0.97354 7.05229,9.58557 14.28821,19.13785 7.23593,9.5523 13.15623,17.5512 13.15623,17.7754 0,0.2243 -1.89897,1.3903 -4.21994,2.5912 l -4.21994,2.1834 -0.59483,-0.9924 z"
           id="path3507" />
        <path
           inkscape:connector-curvature="0"
           style="fill:#d7eef4;fill-opacity:1"
           d="m 65.531019,1028.0433 c -1.782168,-1.0293 -3.333228,-1.9659 -3.446803,-2.0813 -0.113572,-0.1154 7.203826,-10.3985 16.260888,-22.8512 15.094432,-20.75367 16.533005,-22.63376 17.254403,-22.54994 0.642842,0.0747 0.804436,0.27216 0.882126,1.078 0.07964,0.82598 -2.088568,4.83914 -13.321184,24.65644 -9.288746,16.3878 -13.565946,23.6621 -13.902711,23.6447 -0.267524,-0.014 -1.944547,-0.8673 -3.726719,-1.8967 z"
           id="path3505" />
        <path
           inkscape:connector-curvature="0"
           style="fill:#d7eef4;fill-opacity:1"
           d="m 163.37711,1023.2367 c -2.28103,-2.9673 -11.29573,-14.5282 -15.22172,-19.5212 -1.96858,-2.5035 -5.92113,-7.58415 -8.78344,-11.29021 l -5.2042,-6.73829 0,-2.28975 c 0,-1.99568 0.0696,-2.28976 0.54178,-2.28976 0.30913,0 3.2643,2.83429 6.88183,6.60034 3.48703,3.63018 11.99686,12.44007 18.91075,19.57757 8.30367,8.5723 12.51307,13.1275 12.40093,13.4197 -0.0934,0.2433 -1.95035,1.3347 -4.12663,2.4252 l -3.95686,1.9828 -1.44244,-1.8764 z"
           id="path3503" />
        <path
           inkscape:connector-curvature="0"
           style="fill:#d7eef4;fill-opacity:1"
           d="m 57.694904,1023.7966 c -4.451855,-2.3399 -6.6762,-3.6534 -6.6762,-3.9424 0,-0.5781 39.852865,-40.26403 40.433405,-40.26403 0.896288,0 0.629094,1.34636 -0.582576,2.93553 -0.614223,0.80559 -4.261219,5.56146 -8.104441,10.56861 -3.843219,5.00715 -8.967897,11.69849 -11.388168,14.86969 -8.447198,11.0681 -12.339603,16.0407 -12.63042,16.1357 -0.161116,0.053 -0.634338,-0.084 -1.0516,-0.3031 z"
           id="path3501" />
        <path
           inkscape:connector-curvature="0"
           style="fill:#d7eef4;fill-opacity:1"
           d="m 156.21002,999.91609 c -10.62111,-10.6853 -19.3111,-19.55845 -19.3111,-19.71811 0,-0.15966 1.468,0.77909 3.26223,2.08611 1.79423,1.30701 9.61221,6.92822 17.3733,12.49156 22.79739,16.34175 27.0428,19.45755 26.9385,19.77045 -0.0996,0.2989 -8.26969,4.7978 -8.71288,4.7978 -0.13142,0 -8.92894,-8.7425 -19.55005,-19.42781 z"
           id="path3499" />
        <path
           inkscape:connector-curvature="0"
           style="fill:#d7eef4;fill-opacity:1"
           d="m 42.885162,1016.0573 c -2.053321,-1.1132 -3.747538,-2.1569 -3.764924,-2.3194 -0.02645,-0.2471 31.117161,-22.2832 43.729529,-30.94148 3.610884,-2.47885 5.298236,-3.14685 3.478797,-1.37721 -3.469976,3.37499 -39.380533,36.70569 -39.525992,36.68639 -0.101252,-0.013 -1.864086,-0.9352 -3.91741,-2.0483 z"
           id="path3497" />
        <path
           inkscape:connector-curvature="0"
           style="fill:#d7eef4;fill-opacity:1"
           d="m 169.06607,1000.341 c -10.26466,-6.9388 -20.90962,-14.13905 -23.65547,-16.0006 -4.52282,-3.06625 -5.80018,-4.1433 -4.91389,-4.1433 0.17065,0 6.01991,2.81426 12.99836,6.25391 11.55404,5.69494 25.90309,12.69607 34.08228,16.62929 6.40905,3.082 9.25473,4.5869 9.21518,4.8733 -0.0355,0.257 -8.51905,5.0259 -8.91171,5.0096 -0.0835,0 -8.5501,-5.6835 -18.81475,-12.6222 z"
           id="path3495" />
        <path
           inkscape:connector-curvature="0"
           style="fill:#d7eef4;fill-opacity:1"
           d="m 30.406762,1009.3212 c -2.240242,-1.3213 -4.211218,-2.5405 -4.379944,-2.7092 -0.317123,-0.3172 0.626686,-0.7932 11.336017,-5.7177 2.920836,-1.34307 12.275107,-5.67627 20.787265,-9.6293 19.505903,-9.05853 23.517382,-10.86664 23.701137,-10.68288 0.08102,0.081 -3.852998,2.7912 -8.742275,6.02261 -4.889274,3.23142 -15.411248,10.21269 -23.382162,15.51397 -7.970921,5.3012 -14.662293,9.6311 -14.869723,9.6218 -0.207433,-0.01 -2.210073,-1.0979 -4.450315,-2.4193 z"
           id="path3493" />
        <path
           inkscape:connector-curvature="0"
           style="fill:#d7eef4;fill-opacity:1"
           d="m 197.74338,1005.3708 c -1.00143,-0.4882 -7.21485,-3.3613 -13.80759,-6.38465 -6.59275,-3.02332 -15.81046,-7.27231 -20.4838,-9.44218 -4.67334,-2.16988 -10.20397,-4.71678 -12.29028,-5.65979 -2.24605,-1.01521 -3.54574,-1.74898 -3.18637,-1.79894 0.6888,-0.0958 0.80492,-0.0599 35.73285,11.02732 14.1452,4.49014 25.71855,8.24144 25.71855,8.33614 0,0.3069 -8.76727,4.8469 -9.32358,4.8281 -0.29645,-0.01 -1.35835,-0.4177 -2.35978,-0.906 z"
           id="path3491" />
        <path
           inkscape:connector-curvature="0"
           style="fill:#d7eef4;fill-opacity:1"
           d="m 20.368873,1003.9731 c -5.753765,-3.3656 -6.988372,-4.16211 -6.771587,-4.36866 0.135916,-0.1295 4.821832,-1.55799 10.413151,-3.17442 5.591316,-1.61644 16.03805,-4.69362 23.214971,-6.83819 12.668075,-3.7854 21.552265,-6.3719 23.320531,-6.78943 0.917832,-0.21672 1.036049,0.29986 0.179838,0.78581 -0.479593,0.2722 -48.767968,21.19119 -48.905988,21.18659 -0.04693,0 -0.699844,-0.3623 -1.450916,-0.8017 z"
           id="path3489" />
        <path
           inkscape:connector-curvature="0"
           style="fill:#d7eef4;fill-opacity:1"
           d="m 203.054,996.7108 c -4.7568,-1.40379 -11.17505,-3.29865 -14.26279,-4.21079 -3.08775,-0.91214 -11.25254,-3.29862 -18.14399,-5.30328 -6.89146,-2.00466 -12.76348,-3.79285 -13.04894,-3.97376 -0.78194,-0.49553 3.28581,-0.0928 7.82622,0.77481 7.26801,1.38884 13.65814,2.3552 47.1886,7.13612 5.84168,0.83293 10.88377,1.62386 11.20465,1.75762 0.4639,0.19338 -0.60386,0.87626 -5.2123,3.3335 -3.18764,1.69966 -6.04479,3.07855 -6.34922,3.06421 -0.30444,-0.0143 -4.44544,-1.17464 -9.20223,-2.57843 z"
           id="path3487" />
        <path
           inkscape:connector-curvature="0"
           style="fill:#d7eef4;fill-opacity:1"
           d="m 4.7374095,994.65836 c -2.317841,-1.39299 -4.25627624,-2.65878 -4.30764009,-2.81287 -0.0966941,-0.29009 1.53492089,-0.54351 31.16725659,-4.84088 9.763942,-1.41599 20.806378,-3.05773 24.538745,-3.6483 3.732367,-0.59057 6.999876,-0.99173 7.26114,-0.89148 1.113098,0.42714 -0.807492,1.08774 -10.10223,3.47478 -8.810714,2.26273 -13.799915,3.56151 -36.158669,9.41273 -3.864385,1.0113 -7.2867465,1.83873 -7.6052523,1.83873 -0.3185025,0 -2.4755125,-1.13972 -4.7933502,-2.53271 z"
           id="path3485" />
      </g>
    </g>
  </g>
</svg>
